<svg xmlns="http://www.w3.org/2000/svg" version="1.1" xmlns:xlink="http://www.w3.org/1999/xlink" xmlns:svgjs="http://svgjs.dev/svgjs" width="1000" height="1000" viewBox="0 0 1000 1000"><rect width="1000" height="1000" fill="#ffdc00"></rect><g transform="matrix(0.7,0,0,0.7,150.1671974522293,200.29287449392706)"><svg viewBox="0 0 288 247" data-background-color="#ffdc00" preserveAspectRatio="xMidYMid meet" height="857" width="1000" xmlns="http://www.w3.org/2000/svg" xmlns:xlink="http://www.w3.org/1999/xlink"><g id="tight-bounds" transform="matrix(1,0,0,1,-0.06878980891718811,-0.09999999999999432)"><svg viewBox="0 0 288.1375796178344 247.2" height="247.2" width="288.1375796178344"><g><svg viewBox="0 0 288.1375796178344 247.2" height="247.2" width="288.1375796178344"><g><svg viewBox="0 0 288.1375796178344 247.2" height="247.2" width="288.1375796178344"><g><svg viewBox="0 0 288.1375796178344 247.2" height="247.2" width="288.1375796178344"><g><svg viewBox="0 0 288.1375796178344 247.2" height="247.2" width="288.1375796178344"><g transform="matrix(1,0,0,1,0,0)"><svg width="288.1375796178344" viewBox="-0.49000000953674316 -37.11000061035156 44.68000030517578 38.33000183105469" height="247.2" data-palette-color="#ffffff"><path d="M4.98-0.63L4.64-0.78Q4.49-0.68 4.35-0.59 4.2-0.49 4.05-0.39L4.05-0.39Q3.52-0.1 3.08-0.07 2.64-0.05 2.1 0.44L2.1 0.44Q1.9 0.2 1.81 0.2 1.71 0.2 1.46 0.2L1.46 0.2Q0.83 0.2 0.73-0.15L0.73-0.15Q0.54-0.1 0.12 0.1-0.29 0.29-0.49 0.39L-0.49 0.39Q-0.05-0.24 0.1-0.59 0.24-0.93 0.27-1.22 0.29-1.51 0.32-1.83 0.34-2.15 0.54-2.73L0.54-2.73Q0.63-2.93 0.68-3.13 0.73-3.32 0.83-3.56L0.83-3.56Q1.07-4.3 1.25-5.22 1.42-6.15 1.81-6.84L1.81-6.84Q1.81-7.67 2.17-8.4 2.54-9.13 2.78-9.91L2.78-9.91Q2.88-10.21 3.05-10.5 3.22-10.79 3.32-11.08L3.32-11.08Q3.52-11.57 3.64-12.04 3.76-12.5 3.91-12.94L3.91-12.94Q4.3-14.36 4.69-15.75 5.08-17.14 5.42-18.55L5.42-18.55Q5.47-18.8 5.54-19.09 5.62-19.38 5.71-19.63L5.71-19.63Q5.96-20.36 6.03-21.12 6.1-21.88 6.49-22.56L6.49-22.56Q6.45-22.9 6.52-23.19 6.59-23.49 6.69-23.83 6.79-24.17 6.88-24.46 6.98-24.76 7.03-24.9L7.03-24.9Q7.28-25.54 7.4-26.05 7.52-26.56 7.91-27.15L7.91-27.15Q7.91-27.15 8.06-27.66 8.2-28.17 8.4-28.81 8.59-29.44 8.74-30 8.89-30.57 8.89-30.66L8.89-30.66Q8.98-31.05 9.06-31.4 9.13-31.74 9.23-32.13L9.23-32.13Q9.33-32.37 9.42-32.54 9.52-32.71 9.62-32.96L9.62-32.96Q9.77-33.5 9.91-34.28 10.06-35.06 10.3-35.5L10.3-35.5Q10.45-35.84 10.86-36.06 11.28-36.28 11.57-36.52L11.57-36.52Q12.45-36.43 12.87-36.62 13.28-36.82 13.67-37.11L13.67-37.11Q13.92-37.06 14.14-36.99 14.36-36.91 14.6-36.91L14.6-36.91Q15.53-35.89 15.89-34.81 16.26-33.74 16.6-32.67L16.6-32.67Q16.75-32.13 16.89-31.62 17.04-31.1 17.24-30.62L17.24-30.62Q17.29-30.47 17.38-30.3 17.48-30.13 17.58-29.93L17.58-29.93Q17.82-29.54 17.99-29.1 18.16-28.66 18.31-28.22L18.31-28.22Q18.6-27.88 18.75-27.42 18.9-26.95 19.02-26.49 19.14-26.03 19.29-25.61 19.43-25.2 19.73-24.9L19.73-24.9Q19.82-24.37 20.07-23.85 20.31-23.34 20.41-22.75L20.41-22.75Q20.7-22.36 21.09-21.26 21.48-20.17 21.88-18.9 22.27-17.63 22.61-16.46 22.95-15.28 23.1-14.79L23.1-14.79Q23.19-14.4 23.49-13.79 23.78-13.18 24.02-12.7L24.02-12.7Q24.22-12.16 24.44-11.57 24.66-10.99 24.8-10.45L24.8-10.45Q24.9-9.91 25.02-9.42 25.15-8.94 25.29-8.4L25.29-8.4Q25.39-8.06 25.59-7.79 25.78-7.52 25.88-7.13L25.88-7.13Q26.07-6.74 26.15-6.4 26.22-6.05 26.46-5.66L26.46-5.66Q26.42-5.13 26.51-4.98 26.61-4.83 26.71-4.64L26.71-4.64Q26.9-3.61 27.15-3 27.39-2.39 27.39-1.71L27.39-1.71Q27.39-1.12 27.17-0.98 26.95-0.83 26.61-0.49L26.61-0.49Q26.22-0.15 25.95 0.05 25.68 0.24 25.15 0.24L25.15 0.24Q24.56 0.2 24.44 0.42 24.32 0.63 24.27 0.73L24.27 0.73Q23.68 0.68 23.51 0.71 23.34 0.73 23.17 0.73 23 0.73 22.83 0.81 22.66 0.88 22.46 1.12L22.46 1.12Q22.12 0.73 21.8 0.42 21.48 0.1 21.24-0.29L21.24-0.29Q21.24-1.12 21.02-2.25 20.8-3.37 20.56-4L20.56-4Q20.07-5.27 19.65-6.49 19.24-7.71 18.85-8.98L18.85-8.98Q18.7-9.52 18.53-9.96 18.36-10.4 18.16-10.89L18.16-10.89Q18.26-10.5 18.24-10.08 18.21-9.67 17.97-9.28L17.97-9.28Q17.87-9.18 17.68-9.03 17.48-8.89 17.48-8.79L17.48-8.79Q16.89-8.3 16.46-7.86L16.46-7.86Q16.5-6.98 16.21-6.64 15.92-6.3 15.58-6.01L15.58-6.01Q14.75-5.96 14.55-6.1 14.36-6.25 14.01-6.3L14.01-6.3Q13.82-6.35 13.62-6.32 13.43-6.3 13.23-6.3L13.23-6.3Q12.84-6.3 12.5-6.49L12.5-6.49Q12.35-6.59 12.28-6.69 12.21-6.79 12.11-6.88L12.11-6.88Q11.72-7.28 11.21-7.54 10.69-7.81 10.21-8.01L10.21-8.01Q9.81-8.35 9.4-8.72 8.98-9.08 8.54-9.33L8.54-9.33Q8.15-8.4 7.93-7.69 7.71-6.98 7.42-6.3L7.42-6.3Q6.88-4.64 6.54-3.39 6.2-2.15 5.76-0.88L5.76-0.88Q5.57-0.83 5.4-0.73 5.22-0.63 4.98-0.63L4.98-0.63ZM9.23-11.18L9.42-11.18Q9.81-11.87 10.13-11.94 10.45-12.01 10.69-12.3L10.69-12.3Q10.79-12.4 10.91-12.55 11.04-12.7 11.18-12.84L11.18-12.84Q11.33-12.94 11.52-13.04 11.72-13.13 11.87-13.28L11.87-13.28Q12.26-13.62 12.52-13.87 12.79-14.11 13.33-14.11L13.33-14.11Q14.16-14.11 14.7-13.7 15.23-13.28 16.02-13.13L16.02-13.13Q16.11-12.84 16.65-12.72 17.19-12.6 17.48-12.4L17.48-12.4Q16.99-13.62 16.72-14.87 16.46-16.11 16.06-17.33L16.06-17.33Q15.77-18.41 15.38-19.46 14.99-20.51 14.6-21.48L14.6-21.48Q14.26-22.46 14.01-23.39 13.77-24.32 13.38-25.2L13.38-25.2Q12.99-24.32 12.6-23.05 12.21-21.78 12.01-20.8L12.01-20.8Q12.01-20.36 11.96-20.12L11.96-20.12Q11.87-19.78 11.77-19.51 11.67-19.24 11.57-18.95L11.57-18.95Q10.94-17.04 10.42-15.09 9.91-13.13 9.23-11.18L9.23-11.18ZM40.52-36.33L40.52-36.33Q40.87-35.69 40.87-34.86L40.87-34.86Q40.87-34.13 40.57-33.3 40.28-32.47 39.65-32.03L39.65-32.03Q39.21-31.05 38.79-30.44 38.38-29.83 37.99-29.25L37.99-29.25Q37.84-28.91 37.69-28.59 37.55-28.27 37.3-27.93L37.3-27.93Q37.16-27.69 36.67-26.95 36.18-26.22 35.67-25.42 35.15-24.61 34.76-23.88 34.37-23.14 34.37-22.95L34.37-22.95Q34.37-22.75 34.84-22.46 35.3-22.17 35.45-22.02L35.45-22.02Q35.69-21.78 35.91-21.53 36.13-21.29 36.37-21.04L36.37-21.04Q36.91-20.61 37.42-20.17 37.94-19.73 38.47-19.19L38.47-19.19Q39.5-18.26 40.62-17.43 41.75-16.6 42.62-15.48L42.62-15.48Q43.45-15.23 43.7-14.31 43.94-13.38 43.85-12.55L43.85-12.55Q43.94-12.4 44.02-12.26 44.09-12.11 44.19-11.91L44.19-11.91Q44.19-11.13 43.97-10.77 43.75-10.4 43.5-9.86L43.5-9.86Q43.26-9.38 43.19-8.89 43.11-8.4 42.87-8.01L42.87-8.01Q42.77-7.86 42.6-7.76 42.43-7.67 42.33-7.47L42.33-7.47Q42.14-7.13 42.01-6.67 41.89-6.2 41.7-5.81L41.7-5.81Q41.55-5.42 41.33-5.03 41.11-4.64 40.96-4.25L40.96-4.25Q40.87-4 40.79-3.66 40.72-3.32 40.33-3.17L40.33-3.17Q40.09-2.29 39.67-1.46 39.26-0.63 39.01 0.24L39.01 0.24Q38.57 0.39 37.91 0.81 37.25 1.22 36.86 1.22L36.86 1.22Q36.72 1.22 36.62 1.07 36.52 0.93 36.33 0.83L36.33 0.83Q36.23 0.78 36.06 0.83 35.89 0.88 35.79 0.88L35.79 0.88Q35.54 0.88 35.42 0.68 35.3 0.49 35.1 0.39L35.1 0.39Q34.96 0.44 34.81 0.49 34.67 0.54 34.52 0.54L34.52 0.54Q34.18 0.54 34.13 0.37 34.08 0.2 33.84 0.05L33.84 0.05Q33.25-0.24 33.15-0.49 33.05-0.73 32.86-0.83L32.86-0.83Q33.2-2.1 33.79-3.25 34.37-4.39 34.91-5.57L34.91-5.57Q35.06-5.96 35.28-6.3 35.5-6.64 35.69-7.03L35.69-7.03Q35.84-7.37 36.13-7.91 36.42-8.45 36.67-9.03 36.91-9.62 37.11-10.13 37.3-10.64 37.3-10.99L37.3-10.99Q37.3-11.67 36.91-12.01L36.91-12.01Q35.5-13.18 34.25-14.4 33.01-15.63 31.64-16.89L31.64-16.89Q30.76-17.68 29.73-18.51L29.73-18.51Q29.54-18.65 29.44-18.95 29.34-19.24 29.15-19.48L29.15-19.48Q29.05-19.68 28.85-19.78 28.66-19.87 28.56-20.07L28.56-20.07Q28.42-20.26 28.37-20.53 28.32-20.8 28.07-20.95L28.07-20.95Q27.83-21.19 27.49-21.24 27.15-21.29 26.9-21.53L26.9-21.53Q27.05-21.68 27.02-21.85 27-22.02 27-22.17L27-22.17Q27-22.51 27.29-22.66 27.59-22.8 27.59-23.19L27.59-23.19Q27.78-23.58 27.88-23.68L27.88-23.68Q28.42-25 29.1-26.22 29.78-27.44 30.52-28.66L30.52-28.66Q30.76-29.05 30.98-29.42 31.2-29.79 31.44-30.18L31.44-30.18Q31.59-30.52 31.71-30.79 31.83-31.05 32.08-31.3L32.08-31.3Q32.76-32.08 33.23-32.76 33.69-33.45 33.93-34.42L33.93-34.42Q33.98-34.67 34.13-35.11 34.27-35.55 34.49-35.99 34.71-36.43 34.96-36.77 35.2-37.11 35.5-37.11L35.5-37.11Q35.74-37.11 36.2-36.91 36.67-36.72 37.01-36.62L37.01-36.62Q37.3-36.52 37.62-36.45 37.94-36.38 38.23-36.38L38.23-36.38Q38.43-36.38 38.62-36.5 38.82-36.62 39.06-36.62L39.06-36.62Q39.45-36.62 39.79-36.5 40.13-36.38 40.52-36.33Z" opacity="1" transform="matrix(1,0,0,1,0,0)" fill="#ffffff" class="undefined-text-0" data-fill-palette-color="primary" id="text-0"></path></svg></g></svg></g></svg></g></svg></g><g></g></svg></g><defs></defs></svg><rect width="288.1375796178344" height="247.2" fill="none" stroke="none" visibility="hidden"></rect></g></svg></g></svg>